<svg width="291" height="109" viewBox="0 0 291 109" fill="none" xmlns="http://www.w3.org/2000/svg">
<path d="M269.5 24.1261C269.728 21.992 272.302 21.0485 273.86 22.5282C274.491 23.1286 274.78 24.0058 274.628 24.8632L268.071 61.8913C268.039 62.0721 267.969 62.244 267.866 62.3957C267.104 63.5139 265.353 62.8674 265.497 61.5215L269.5 24.1261Z" fill="black"/>
<path d="M268.111 61.9161C267.182 64.4134 263.859 66.2333 260.877 65.1829C257.895 64.1325 254.814 61.8483 255.742 59.3511C256.671 56.8538 259.543 57.4366 262.525 58.487C265.507 59.5374 269.039 59.4188 268.111 61.9161Z" fill="black"/>
<path d="M269.628 24.7402C269.573 23.3111 270.655 22.1019 272.123 21.9522C273.809 21.7801 275.31 23.0626 275.344 24.705L275.392 26.9926C275.444 29.4901 277.462 31.5774 280.042 31.8006L284.517 32.188L282.96 34.7923C280.851 38.3197 275.402 37.8407 273.82 33.9889L272.568 30.9398C272.355 30.419 271.786 30.1154 271.223 30.2218C270.506 30.3575 269.822 29.8304 269.795 29.1211L269.628 24.7402Z" fill="black"/>
<path d="M26.664 50.5814L26.664 30.5414L36.624 30.5414L36.624 50.5814L26.664 50.5814ZM26.664 30.6014C26.664 28.2014 27.284 26.0614 28.524 24.1814C29.764 22.2614 31.444 20.7614 33.564 19.6814C35.684 18.5614 38.084 18.0014 40.764 18.0014L40.764 25.5614C39.484 25.5614 38.464 26.0014 37.704 26.8814C36.984 27.7614 36.624 29.0014 36.624 30.6014L26.664 30.6014ZM26.664 50.5214L36.624 50.5214C36.624 52.1214 36.984 53.3614 37.704 54.2414C38.464 55.1214 39.484 55.5614 40.764 55.5614L40.764 63.1214C38.084 63.1214 35.684 62.5814 33.564 61.5014C31.444 60.3814 29.764 58.8814 28.524 57.0014C27.284 55.0814 26.664 52.9214 26.664 50.5214ZM46.104 32.7014C45.984 30.4614 45.444 28.7214 44.484 27.4814C43.524 26.2014 42.264 25.5614 40.704 25.5614L40.704 18.0014C44.824 18.0014 48.144 19.1614 50.664 21.4814C53.184 23.7614 54.644 26.9814 55.044 31.1414L46.104 32.7014ZM46.104 48.4214L55.044 49.9814C54.644 54.1014 53.184 57.3214 50.664 59.6414C48.144 61.9614 44.824 63.1214 40.704 63.1214L40.704 55.5614C42.264 55.5614 43.524 54.9414 44.484 53.7014C45.444 52.4214 45.984 50.6614 46.104 48.4214ZM67.2221 55.4414L67.2221 47.8814L82.5821 47.8814L82.5821 55.4414L67.2221 55.4414ZM78.3821 18.9614L67.6421 62.1614L58.0421 62.1614L68.7821 18.9614L78.3821 18.9614ZM78.5021 18.9614L89.2421 62.1614L79.6421 62.1614L68.9021 18.9614L78.5021 18.9614ZM112.195 62.1614L95.0949 18.9614L103.495 18.9614L120.595 62.1614L112.195 62.1614ZM93.4749 62.1614L93.4749 18.9614L103.435 18.9614L103.435 62.1614L93.4749 62.1614ZM114.535 62.1614L114.535 18.9614L124.495 18.9614L124.495 62.1614L114.535 62.1614ZM131.078 50.5814L131.078 30.5414L141.038 30.5414L141.038 50.5814L131.078 50.5814ZM131.078 30.6014C131.078 28.2014 131.698 26.0614 132.938 24.1814C134.178 22.2614 135.858 20.7614 137.978 19.6814C140.098 18.5614 142.498 18.0014 145.178 18.0014L145.178 25.5614C143.898 25.5614 142.878 26.0014 142.118 26.8814C141.398 27.7614 141.038 29.0014 141.038 30.6014L131.078 30.6014ZM131.078 50.5214L141.038 50.5214C141.038 52.1214 141.398 53.3614 142.118 54.2414C142.878 55.1214 143.898 55.5614 145.178 55.5614L145.178 63.1214C142.498 63.1214 140.098 62.5814 137.978 61.5014C135.858 60.3814 134.178 58.8814 132.938 57.0014C131.698 55.0814 131.078 52.9214 131.078 50.5214ZM150.518 32.7014C150.398 30.4614 149.858 28.7214 148.898 27.4814C147.938 26.2014 146.678 25.5614 145.118 25.5614L145.118 18.0014C149.238 18.0014 152.558 19.1614 155.078 21.4814C157.598 23.7614 159.058 26.9814 159.458 31.1414L150.518 32.7014ZM150.518 48.4214L159.458 49.9814C159.058 54.1014 157.598 57.3214 155.078 59.6414C152.558 61.9614 149.238 63.1214 145.118 63.1214L145.118 55.5614C146.678 55.5614 147.938 54.9414 148.898 53.7014C149.858 52.4214 150.398 50.6614 150.518 48.4214ZM165.442 62.1614L165.442 18.9614L175.402 18.9614L175.402 62.1614L165.442 62.1614ZM201.002 50.5214L201.002 30.5414L210.962 30.5414L210.962 50.5214L201.002 50.5214ZM182.882 50.5214L182.882 30.5414L192.842 30.5414L192.842 50.5214L182.882 50.5214ZM210.962 30.6614L201.002 30.6614C201.002 29.0614 200.622 27.8214 199.862 26.9414C199.142 26.0614 198.142 25.6214 196.862 25.6214L196.862 18.0614C199.542 18.0614 201.942 18.6214 204.062 19.7414C206.182 20.8214 207.862 22.3214 209.102 24.2414C210.342 26.1214 210.962 28.2614 210.962 30.6614ZM182.882 30.6614C182.882 28.2614 183.502 26.1214 184.742 24.2414C185.982 22.3214 187.662 20.8214 189.782 19.7414C191.902 18.6214 194.302 18.0614 196.982 18.0614L196.982 25.6214C195.702 25.6214 194.682 26.0614 193.922 26.9414C193.202 27.8214 192.842 29.0614 192.842 30.6614L182.882 30.6614ZM210.962 50.4614C210.962 52.8614 210.342 55.0214 209.102 56.9414C207.862 58.8214 206.182 60.3214 204.062 61.4414C201.942 62.5214 199.542 63.0614 196.862 63.0614L196.862 55.5014C198.142 55.5014 199.142 55.0614 199.862 54.1814C200.622 53.3014 201.002 52.0614 201.002 50.4614L210.962 50.4614ZM182.882 50.4614L192.842 50.4614C192.842 52.0614 193.202 53.3014 193.922 54.1814C194.682 55.0614 195.702 55.5014 196.982 55.5014L196.982 63.0614C194.302 63.0614 191.902 62.5214 189.782 61.4414C187.662 60.3214 185.982 58.8214 184.742 56.9414C183.502 55.0214 182.882 52.8614 182.882 50.4614ZM198.362 16.7414L192.002 16.7414L195.902 7.86141L204.182 7.86141L198.362 16.7414ZM236.589 62.1614L219.489 18.9614L227.889 18.9614L244.989 62.1614L236.589 62.1614ZM217.869 62.1614L217.869 18.9614L227.829 18.9614L227.829 62.1614L217.869 62.1614ZM238.929 62.1614L238.929 18.9614L248.889 18.9614L248.889 62.1614L238.929 62.1614Z" fill="black"/>
</svg>
