<svg width="30" height="31" viewBox="0 0 30 31" fill="none" xmlns="http://www.w3.org/2000/svg">
<path fill-rule="evenodd" clip-rule="evenodd" d="M25.1693 4.73982C23.8074 3.36456 22.1894 2.27477 20.4086 1.53318C18.6277 0.791595 16.7191 0.412856 14.7926 0.418769C6.70778 0.418769 0.126264 7.02845 0.122976 15.1541C0.119368 17.7416 0.795103 20.2837 2.08138 22.5218L0 30.155L7.77642 28.106C9.92894 29.2831 12.3386 29.8991 14.7867 29.8982H14.7926C22.8768 29.8982 29.4577 23.2878 29.4616 15.1628C29.4665 13.225 29.0895 11.3055 28.3527 9.51616C27.6158 7.72678 26.5337 6.10318 25.1693 4.73982ZM14.7926 27.4111H14.7874C12.605 27.4117 10.4622 26.8222 8.58201 25.7039L8.1368 25.4384L3.52224 26.6544L4.75397 22.1349L4.46396 21.6702C3.24366 19.7202 2.59713 17.4606 2.59959 15.1541C2.59959 8.40176 8.07169 2.90785 14.7972 2.90785C18.0235 2.90204 21.12 4.18992 23.4056 6.48823C25.6912 8.78654 26.9787 11.9071 26.985 15.1634C26.9824 21.9165 21.5129 27.4111 14.7926 27.4111ZM21.48 18.2386C21.1137 18.0541 19.3099 17.1633 18.9758 17.0405C18.6417 16.9177 18.3951 16.856 18.1511 17.2251C17.9071 17.5941 17.2041 18.4198 16.9904 18.6687C16.7767 18.9176 16.563 18.9449 16.1967 18.7603C15.8304 18.5758 14.6486 18.1875 13.2485 16.933C12.1588 15.9566 11.4236 14.7512 11.2099 14.3829C10.9962 14.0145 11.1869 13.8147 11.3703 13.6315C11.5354 13.4662 11.7366 13.2014 11.9201 12.9863C12.1036 12.7713 12.1648 12.6173 12.2864 12.3717C12.4081 12.1261 12.3476 11.911 12.2562 11.7272C12.1648 11.5433 11.4315 9.7306 11.1264 8.99317C10.8285 8.27498 10.5266 8.37256 10.3017 8.36127C10.088 8.35065 9.84136 8.348 9.5987 8.348C9.41319 8.35287 9.23067 8.39629 9.06253 8.47555C8.89439 8.5548 8.74425 8.6682 8.62147 8.80864C8.28542 9.17769 7.33844 10.0698 7.33844 11.8805C7.33844 13.6912 8.65369 15.4435 8.8352 15.6891C9.0167 15.9347 11.4197 19.6537 15.0964 21.2488C15.7792 21.5439 16.4768 21.8027 17.1864 22.024C18.0643 22.3041 18.8633 22.265 19.4946 22.17C20.199 22.0645 21.6648 21.2793 21.9693 20.4191C22.2738 19.5588 22.2744 18.8221 22.183 18.6687C22.0916 18.5154 21.847 18.4225 21.48 18.2386Z" fill="white"/>
</svg>
