<svg width="31" height="30" viewBox="0 0 31 30" fill="none" xmlns="http://www.w3.org/2000/svg">
<path d="M28.5224 0.185059H2.31295C1.88168 0.185059 1.46806 0.357979 1.16311 0.665778C0.858151 0.973578 0.686829 1.39104 0.686829 1.82634V28.2805C0.686937 28.7157 0.858308 29.1331 1.16325 29.4408C1.4682 29.7485 1.88175 29.9214 2.31295 29.9214H16.423V18.406H12.5836V13.9183H16.423V10.6085C16.423 6.76752 18.7472 4.67648 22.1419 4.67648C23.768 4.67648 25.1654 4.79832 25.5729 4.85325V8.86724L23.2185 8.86848C21.3722 8.86848 21.015 9.75396 21.015 11.0533V13.9187H25.4179L24.8446 18.4064H21.015V29.9214H28.5228C28.954 29.9213 29.3675 29.7483 29.6724 29.4405C29.9772 29.1327 30.1485 28.7153 30.1485 28.2801V1.82634C30.1485 1.39104 29.9772 0.973578 29.6722 0.665778C29.3673 0.357979 28.9536 0.185059 28.5224 0.185059Z" fill="white"/>
</svg>
