<svg width="38" height="31" viewBox="0 0 38 31" fill="none" xmlns="http://www.w3.org/2000/svg">
<path d="M37.5734 6.98452C37.5734 3.49989 35.1922 0.696697 32.25 0.696697C28.2647 0.496137 24.2003 0.418701 20.0466 0.418701H18.7518C14.6082 0.418701 10.5366 0.496137 6.55127 0.697472C3.61624 0.697472 1.23513 3.51615 1.23513 7.00078C1.05528 9.75674 0.979031 12.5135 0.983348 15.2702C0.976154 18.0269 1.05768 20.7862 1.22793 23.5481C1.22793 27.0328 3.60905 29.8592 6.54407 29.8592C10.7308 30.0683 15.0254 30.1612 19.392 30.1534C23.7658 30.1689 28.0484 30.0709 32.24 29.8592C35.1822 29.8592 37.5633 27.0328 37.5633 23.5481C37.7359 20.7837 37.8151 18.0269 37.8079 15.2625C37.8242 12.5057 37.746 9.74641 37.5734 6.98452ZM15.8743 22.8667V7.65047L26.3052 15.2547L15.8743 22.8667Z" fill="white"/>
</svg>
