<svg width="30" height="31" viewBox="0 0 30 31" fill="none" xmlns="http://www.w3.org/2000/svg">
<path fill-rule="evenodd" clip-rule="evenodd" d="M27.7517 3.15928C27.8933 2.99592 28.0016 2.80603 28.0704 2.60045C28.1392 2.39486 28.1672 2.17761 28.1529 1.96108C28.1385 1.74456 28.082 1.53302 27.9867 1.33853C27.8913 1.14404 27.7589 0.97041 27.5971 0.827557C27.4352 0.684704 27.2471 0.575426 27.0434 0.50596C26.8397 0.436493 26.6244 0.408201 26.4099 0.422697C26.1954 0.437193 25.9858 0.494194 25.7931 0.590445C25.6004 0.686696 25.4283 0.820313 25.2868 0.983666L16.9229 10.631L9.82432 1.07948C9.67186 0.874314 9.47416 0.707792 9.24689 0.593101C9.01962 0.478411 8.76901 0.418701 8.51491 0.418701H1.96788C1.66391 0.418701 1.36595 0.504131 1.10738 0.665418C0.848812 0.826704 0.639851 1.05748 0.503914 1.33187C0.367976 1.60627 0.310432 1.91345 0.33773 2.219C0.365028 2.52454 0.476089 2.81638 0.658468 3.06181L11.1943 17.2388L2.37216 27.4148C2.23062 27.5781 2.12234 27.768 2.05351 27.9736C1.98469 28.1792 1.95665 28.3964 1.97102 28.6129C1.98538 28.8295 2.04186 29.041 2.13722 29.2355C2.23259 29.43 2.36498 29.6036 2.52683 29.7465C2.68868 29.8893 2.87682 29.9986 3.08052 30.0681C3.28422 30.1375 3.49948 30.1658 3.71401 30.1513C3.92853 30.1368 4.13814 30.0798 4.33084 29.9836C4.52354 29.8873 4.69557 29.7537 4.83711 29.5904L13.201 19.9414L20.2996 29.4929C20.452 29.6981 20.6497 29.8646 20.877 29.9793C21.1043 30.094 21.3549 30.1537 21.609 30.1537H28.156C28.46 30.1537 28.7579 30.0683 29.0165 29.907C29.2751 29.7457 29.484 29.5149 29.62 29.2405C29.7559 28.9661 29.8135 28.6589 29.7862 28.3534C29.7589 28.0478 29.6478 27.756 29.4654 27.5106L18.9296 13.3336L27.7517 3.15928ZM22.4274 26.8498L5.24139 3.72259H7.69653L24.8825 26.8498H22.4274Z" fill="white"/>
</svg>
